<svg width="32" height="32" viewBox="0 0 32 32" fill="none" xmlns="http://www.w3.org/2000/svg">
<path d="M17.0085 11.5006C19.486 11.5006 21.4982 9.48364 21.4982 7.01091C21.4982 4.53333 19.4812 2.52121 17.0085 2.52121C14.5309 2.52121 12.5188 4.53818 12.5188 7.01091C12.5188 9.48848 14.5357 11.5006 17.0085 11.5006ZM17.0085 10.6521C16.1551 10.6521 15.3745 10.3564 14.7539 9.86667L17.183 7.43758H20.6206C20.4169 9.24606 18.8751 10.6521 17.0085 10.6521ZM20.6254 6.58909H17.4351V3.39394C19.103 3.59273 20.4315 4.91636 20.6254 6.58909ZM16.5866 3.39394V6.83151L14.1576 9.26061C13.6679 8.64 13.3721 7.85939 13.3721 7.00606C13.3673 5.14424 14.7782 3.60727 16.5866 3.39394Z" fill="black"/>
<path d="M26.5842 0.547878H7.43756C6.64726 0.547878 6.00241 1.19273 6.00241 1.98303V2.5697H5.41574C4.62544 2.5697 3.98059 3.21455 3.98059 4.00485V30.0267C3.98059 30.817 4.62544 31.4618 5.41574 31.4618H24.5624C25.3527 31.4618 25.9976 30.817 25.9976 30.0267V29.44H26.5842C27.3745 29.44 28.0194 28.7952 28.0194 28.0048V1.97818C28.0194 1.18788 27.3745 0.547878 26.5842 0.547878ZM25.1491 30.0218C25.1491 30.3467 24.8873 30.6085 24.5624 30.6085H5.41574C5.09089 30.6085 4.82908 30.3467 4.82908 30.0218V4C4.82908 3.67515 5.09089 3.41333 5.41574 3.41333H6.00241V28C6.00241 28.7903 6.64726 29.4352 7.43756 29.4352H25.1491V30.0218ZM27.1709 28C27.1709 28.3248 26.9091 28.5867 26.5842 28.5867H7.43756C7.11271 28.5867 6.85089 28.3248 6.85089 28V1.97818C6.85089 1.65333 7.11271 1.39151 7.43756 1.39151H26.5842C26.9091 1.39151 27.1709 1.65333 27.1709 1.97818V28Z" fill="black"/>
<path d="M9.2703 15.4958H11.4909C11.7236 15.4958 11.9176 15.3067 11.9176 15.0691V12.8485C11.9176 12.6158 11.7285 12.4218 11.4909 12.4218H9.2703C9.03757 12.4218 8.84363 12.6109 8.84363 12.8485V15.0691C8.84363 15.3067 9.03757 15.4958 9.2703 15.4958ZM9.69211 13.2752H11.0642V14.6473H9.69211V13.2752Z" fill="black"/>
<path d="M21.057 12.703H13.1103C12.8776 12.703 12.6836 12.8921 12.6836 13.1297C12.6836 13.3673 12.8727 13.5564 13.1103 13.5564H21.057C21.2897 13.5564 21.4836 13.3673 21.4836 13.1297C21.4836 12.8921 21.2945 12.703 21.057 12.703Z" fill="black"/>
<path d="M13.1103 15.0788H18.463C18.6957 15.0788 18.8897 14.8897 18.8897 14.6521C18.8897 14.4145 18.7006 14.2255 18.463 14.2255H13.1103C12.8776 14.2255 12.6836 14.4145 12.6836 14.6521C12.6836 14.8897 12.8776 15.0788 13.1103 15.0788Z" fill="black"/>
<path d="M9.2703 19.2H11.4909C11.7236 19.2 11.9176 19.0109 11.9176 18.7733V16.5527C11.9176 16.32 11.7285 16.1261 11.4909 16.1261H9.2703C9.03757 16.1261 8.84363 16.3152 8.84363 16.5527V18.7733C8.84363 19.0109 9.03757 19.2 9.2703 19.2ZM9.69211 16.9794H11.0642V18.3515H9.69211V16.9794Z" fill="black"/>
<path d="M21.4836 16.8291C21.4836 16.5964 21.2945 16.4024 21.057 16.4024H13.1103C12.8776 16.4024 12.6836 16.5915 12.6836 16.8291C12.6836 17.0667 12.8727 17.2558 13.1103 17.2558H21.057C21.2945 17.2509 21.4836 17.0618 21.4836 16.8291Z" fill="black"/>
<path d="M13.1103 17.9345C12.8776 17.9345 12.6836 18.1236 12.6836 18.3612C12.6836 18.5988 12.8727 18.7879 13.1103 18.7879H18.463C18.6957 18.7879 18.8897 18.5988 18.8897 18.3612C18.8897 18.1236 18.7006 17.9345 18.463 17.9345H13.1103Z" fill="black"/>
<path d="M24.7515 26.6085H24.3248V20.5479C24.3248 20.3152 24.1357 20.1212 23.8982 20.1212H21.8812C21.6485 20.1212 21.4545 20.3103 21.4545 20.5479V26.6085H20.5576V24.3249C20.5576 24.0921 20.3685 23.8982 20.1309 23.8982H18.1139C17.8812 23.8982 17.6873 24.0873 17.6873 24.3249V26.6085H16.7903V20.5479C16.7903 20.3152 16.6012 20.1212 16.3636 20.1212H14.3467C14.1139 20.1212 13.92 20.3103 13.92 20.5479V26.6085H13.0424V23.0691C13.0424 22.8364 12.8533 22.6424 12.6157 22.6424H10.5988C10.366 22.6424 10.1721 22.8315 10.1721 23.0691V26.6085H9.26059C9.02786 26.6085 8.83392 26.7976 8.83392 27.0352C8.83392 27.2727 9.02301 27.4618 9.26059 27.4618H24.7418C24.9745 27.4618 25.1685 27.2727 25.1685 27.0352C25.1685 26.7976 24.9842 26.6085 24.7515 26.6085ZM22.3127 20.9697H23.4812V26.6085H22.3127V20.9697ZM18.5503 24.7515H19.7188V26.6085H18.5503V24.7515ZM14.7879 20.9697H15.9563V26.6085H14.7879V20.9697ZM11.0303 23.4958H12.1988V26.6133H11.0303V23.4958Z" fill="black"/>
</svg>
